<?xml version="1.0" encoding="UTF-8" standalone="no"?>
<!-- Created with Inkscape (http://www.inkscape.org/) -->

<svg
   xmlns:dc="http://purl.org/dc/elements/1.1/"
   xmlns:cc="http://creativecommons.org/ns#"
   xmlns:rdf="http://www.w3.org/1999/02/22-rdf-syntax-ns#"
   xmlns:svg="http://www.w3.org/2000/svg"
   xmlns="http://www.w3.org/2000/svg"
   xmlns:sodipodi="http://sodipodi.sourceforge.net/DTD/sodipodi-0.dtd"
   xmlns:inkscape="http://www.inkscape.org/namespaces/inkscape"
   width="192.4375"
   height="138.5"
   id="svg4329"
   version="1.1"
   inkscape:version="0.48.4 r9939"
   sodipodi:docname="A01.svg">
  <defs
     id="defs4331" />
  <sodipodi:namedview
     id="base"
     pagecolor="#ffffff"
     bordercolor="#666666"
     borderopacity="1.0"
     inkscape:pageopacity="0.0"
     inkscape:pageshadow="2"
     inkscape:zoom="2.8"
     inkscape:cx="151.79502"
     inkscape:cy="9.8130827"
     inkscape:document-units="px"
     inkscape:current-layer="layer1"
     showgrid="false"
     fit-margin-top="4"
     fit-margin-left="4"
     fit-margin-right="4"
     fit-margin-bottom="4"
     inkscape:window-width="1920"
     inkscape:window-height="1153"
     inkscape:window-x="1276"
     inkscape:window-y="-4"
     inkscape:window-maximized="1" />
  <metadata
     id="metadata4334">
    <rdf:RDF>
      <cc:Work
         rdf:about="">
        <dc:format>image/svg+xml</dc:format>
        <dc:type
           rdf:resource="http://purl.org/dc/dcmitype/StillImage" />
        <dc:title></dc:title>
      </cc:Work>
    </rdf:RDF>
  </metadata>
  <g
     inkscape:label="Layer 1"
     inkscape:groupmode="layer"
     id="layer1"
     transform="translate(-25.96875,-376.125)">
    <g
       id="g4929">
      <rect
         y="381.56656"
         x="31.414541"
         height="127.62641"
         width="181.55501"
         id="rect4403"
         style="fill:#00a000;fill-opacity:1;fill-rule:evenodd;stroke:#000000;stroke-width:2.87356567;stroke-miterlimit:4;stroke-opacity:1;stroke-dasharray:none" />
      <path
         inkscape:connector-curvature="0"
         id="path3063"
         d="m 32.066902,505.20118 c 0,-1.925 0.2058,-2.7125 0.45733,-1.75 0.25152,0.96251 0.25152,2.5375 0,3.5 -0.25153,0.96251 -0.45733,0.175 -0.45733,-1.75 z m 1.85623,2.57844 c 0.45266,-0.45266 49.54488,-14.82875 59.26829,-17.35603 l 5.856514,-1.52221 -0.57297,-3.53085 c -1.0727,-6.61023 -0.81231,-6.6226 -28.640064,1.35969 -14.025,4.02301 -28.3125,8.20257 -31.75,9.28791 l -6.25,1.97333 0,-57.89513 0,-57.89514 43.75,0.0391 c 37.805798,0.0338 43.324808,0.22418 40.620498,1.40106 -3.20717,1.39572 -4.18665,3.29532 -7.76516,15.0598 -7.19527,23.65472 -6.82886,56.35909 0.91958,82.0761 1.33831,4.44184 3.32061,8.8791 4.4051,9.86055 4.92245,4.45475 30.33213,4.21038 48.74604,-0.46881 22.39406,-5.69059 40.7995,-20.85936 47.28269,-38.96784 l 1.96911,-5.5 0.0361,31.25 0.036,31.24999 -89.16667,0 c -49.041668,0 -88.976968,-0.1897 -88.745108,-0.42156 z m 29.91177,-32.92237 28.5,-8.29812 -0.28704,-3.42897 c -0.15787,-1.88593 -0.86896,-4.0115 -1.58021,-4.72347 -1.29148,-1.2928 -1.97639,-1.11568 -52.38275,13.54612 l -5.25,1.52707 0,4.86065 c 0,3.23409 0.4183,4.85298 1.25,4.83775 0.6875,-0.0126 14.075,-3.75707 29.75,-8.32103 z m -14,-20.02346 c 6.325,-1.87926 17.35,-5.11654 24.5,-7.19395 7.15,-2.0774 13.5625,-4.20605 14.25,-4.73032 1.41076,-1.07581 1.7147,-8.30309 0.38378,-9.12565 -1.29448,-0.80003 -50.72885,12.81296 -54.10394,14.89888 -1.13842,0.70358 -1.42709,8.78786 -0.35217,9.86277 0.37271,0.37271 1.38521,0.45885 2.25,0.19138 0.86478,-0.26745 6.74733,-2.02385 13.07233,-3.90311 z m 14,-26.65243 c 14.025,-4.0018 26.0625,-7.71455 26.75,-8.25053 1.32625,-1.03398 1.77322,-9.73054 0.5,-9.72835 -0.4125,7e-4 -7.725,2.03421 -16.25,4.5189 -8.525,2.4847 -20.45,5.92658 -26.5,7.64864 -6.05,1.72206 -11.5625,3.56865 -12.25,4.10354 -1.32074,1.02756 -1.73851,7.90579 -0.55223,9.09206 0.38377,0.38377 1.17127,0.51642 1.75,0.29476 0.57872,-0.22165 12.52723,-3.67721 26.55223,-7.67902 z m 0.5,-21.39666 c 34.442834,-9.96544 32.271284,-9.08806 33.617964,-13.58288 1.14613,-3.82545 0.63145,-7.58182 -0.90844,-6.63012 -0.66182,0.40903 -48.993524,14.63158 -55.709524,16.39362 -3.4424,0.90317 -4.5,2.35834 -4.5,6.19165 0,4.17501 0.74773,5.3618 2.97457,4.72121 0.83899,-0.24135 11.87543,-3.43342 24.52543,-7.09348 z m 57.736288,74.7922 c -1.69975,-1.4084 -2.93459,-4.74077 -4.95645,-13.37571 -2.40188,-10.25791 -2.6963,-13.49815 -2.72587,-30 -0.0282,-15.72792 0.30577,-19.97377 2.22874,-28.3355 1.24405,-5.40952 2.90391,-11.37202 3.68858,-13.25 l 1.42667,-3.4145 12.30102,0.0157 c 28.87808,0.0368 50.03429,9.37292 61.58169,27.17573 9.98547,15.39476 7.80024,28.44131 -7.29325,43.54305 -12.55051,12.55737 -27.09361,17.91699 -51.48741,18.97488 -11.22987,0.487 -12.73002,0.35148 -14.76372,-1.33362 z m 88.76372,-53.24135 c 0,-4.68989 -7.48191,-16.7422 -15.0309,-24.21269 -11.61564,-11.49485 -26.93121,-18.33591 -47.4691,-21.20318 -1.65,-0.23035 11.9625,-0.48625 30.25,-0.56866 l 33.25,-0.14983 0,24 c 0,13.2 -0.225,24 -0.5,24 -0.275,0 -0.5,-0.83954 -0.5,-1.86564 z"
         style="fill:#000000" />
    </g>
  </g>
</svg>
