<?xml version="1.0" encoding="UTF-8" standalone="no"?>
<!-- Created with Inkscape (http://www.inkscape.org/) -->

<svg
   xmlns:dc="http://purl.org/dc/elements/1.1/"
   xmlns:cc="http://creativecommons.org/ns#"
   xmlns:rdf="http://www.w3.org/1999/02/22-rdf-syntax-ns#"
   xmlns:svg="http://www.w3.org/2000/svg"
   xmlns="http://www.w3.org/2000/svg"
   xmlns:sodipodi="http://sodipodi.sourceforge.net/DTD/sodipodi-0.dtd"
   xmlns:inkscape="http://www.inkscape.org/namespaces/inkscape"
   width="208"
   height="113.33434"
   id="svg4329"
   version="1.1"
   inkscape:version="0.48.4 r9939"
   sodipodi:docname="A09.svg">
  <defs
     id="defs4331" />
  <sodipodi:namedview
     id="base"
     pagecolor="#ffffff"
     bordercolor="#666666"
     borderopacity="1.0"
     inkscape:pageopacity="0.0"
     inkscape:pageshadow="2"
     inkscape:zoom="2.8"
     inkscape:cx="75.969112"
     inkscape:cy="9.4559453"
     inkscape:document-units="px"
     inkscape:current-layer="layer1"
     showgrid="false"
     fit-margin-top="4"
     fit-margin-left="4"
     fit-margin-right="4"
     fit-margin-bottom="4"
     inkscape:window-width="1920"
     inkscape:window-height="1153"
     inkscape:window-x="1276"
     inkscape:window-y="-4"
     inkscape:window-maximized="1" />
  <metadata
     id="metadata4334">
    <rdf:RDF>
      <cc:Work
         rdf:about="">
        <dc:format>image/svg+xml</dc:format>
        <dc:type
           rdf:resource="http://purl.org/dc/dcmitype/StillImage" />
        <dc:title></dc:title>
      </cc:Work>
    </rdf:RDF>
  </metadata>
  <g
     inkscape:label="Layer 1"
     inkscape:groupmode="layer"
     id="layer1"
     transform="translate(-101.79466,-400.93351)">
    <g
       id="g5065"
       transform="matrix(1.0518408,0,0,1.0518408,-5.484479,-26.45269)">
      <rect
         y="411.5498"
         x="107.21947"
         height="97.293243"
         width="187.29323"
         id="rect5063"
         style="fill:#00a000;fill-opacity:1;fill-rule:evenodd;stroke:#000000;stroke-width:2.84961605;stroke-miterlimit:4;stroke-opacity:1;stroke-dasharray:none" />
      <path
         inkscape:connector-curvature="0"
         id="path3175"
         d="m 108.36507,486.44643 -0.001,-21.75 16.75103,0 16.75103,0 0,-4.5 0,-4.5 -16.75103,0 -16.75103,0 0.001,-21.75 10e-4,-21.75 4,0 c 2.2,0 4,0.45 4,1 0,0.55 -0.41425,1 -0.92054,1 -0.5063,0 -1.23454,1.42961 -1.61831,3.17691 -0.53434,2.43283 -0.28529,3.47851 1.06336,4.46467 2.74135,2.00452 29.37113,10.61244 30.95307,10.0054 0.77575,-0.29769 1.97321,-2.41955 2.66102,-4.71525 1.12177,-3.74413 1.06228,-4.31168 -0.57766,-5.51083 -2.39925,-1.75437 -20.35119,-7.42217 -23.56094,-7.43867 -1.375,-0.007 -3.175,-0.44907 -4,-0.98223 -0.97467,-0.62988 27.39303,-0.95012 81,-0.9144 46.94394,0.0313 81.63803,0.42537 80.5,0.9144 -1.1,0.47269 -3.05466,0.89106 -4.3437,0.92971 -3.26249,0.0978 -21.46113,5.84148 -23.7032,7.48093 -1.65547,1.21051 -1.71547,1.77029 -0.5917,5.52109 0.68781,2.2957 1.88527,4.41756 2.66102,4.71525 1.55018,0.59486 28.18548,-7.98169 30.85891,-9.93655 1.24022,-0.90687 1.50078,-2.04986 1.01782,-4.46467 -0.35703,-1.78517 -1.0429,-3.24576 -1.52415,-3.24576 -0.48125,0 -0.875,-0.45 -0.875,-1 0,-0.55 1.8,-1 4,-1 l 4,0 0.001,21.75 10e-4,21.75 -16.75103,0 -16.75103,0 0,4.5 0,4.5 16.75103,0 16.75103,0 -10e-4,21.75 -0.001,21.75 -4,0 c -3.67863,0 -5.46904,-1.34365 -2.9218,-2.19273 0.593,-0.19767 1.1555,-1.92267 1.25,-3.83334 l 0.1718,-3.47393 -13.5,-4.68081 c -16.89759,-5.85884 -18.49022,-5.95607 -20.72708,-1.26532 -1.248,2.61708 -1.41923,4.00097 -0.64958,5.25 1.17958,1.91429 18.28083,8.06657 22.87666,8.23001 1.65,0.0587 3.9,0.49343 5,0.96612 1.13683,0.48851 -33.39001,0.85943 -80,0.85943 -46.60999,0 -81.13683,-0.37092 -80,-0.85943 1.1,-0.47269 3.35,-0.92716 5,-1.00994 4.75707,-0.23866 21.75138,-6.31652 22.88941,-8.18619 0.75465,-1.23981 0.57646,-2.65222 -0.66233,-5.25 -2.23686,-4.69075 -3.82949,-4.59352 -20.72708,1.26532 l -13.5,4.68081 0.1718,3.47393 c 0.0945,1.91067 0.657,3.63567 1.25,3.83334 2.54724,0.84908 0.75683,2.19273 -2.9218,2.19273 l -4,0 -10e-4,-21.75 z m 61.33495,6.56915 c 7.55068,-3.79567 13.58087,-9.41608 17.19952,-16.03075 2.4959,-4.56236 2.94795,-6.61512 3.29267,-14.95205 0.36413,-8.80663 0.16346,-10.18125 -2.26278,-15.5 -3.62654,-7.95004 -10.52151,-14.81407 -19.03512,-18.94969 -9.70215,-4.71298 -12.12542,-4.55148 -14.56823,0.97091 -7.81226,17.66091 -6.92262,53.34128 1.65702,66.45746 1.85925,2.84234 5.00193,2.38507 13.71692,-1.99588 z m -6.76747,-11.71164 c -0.30338,-0.49087 -1.05047,-5.47831 -1.66022,-11.0832 -1.35921,-12.49402 0.44155,-32.03516 2.95076,-32.02057 1.6987,0.01 7.17759,4.18229 9.40341,7.16112 3.67652,4.9203 5.06041,10.2498 4.49394,17.30674 -0.63934,7.96485 -3.10299,13.04402 -8.07347,16.64461 -4.10057,2.97044 -6.15406,3.54521 -7.11442,1.9913 z m 83.83687,12.64249 c 2.15747,-3.3491 4.43426,-13.17854 5.6579,-24.42644 1.31913,-12.12565 -0.60287,-29.77141 -4.24486,-38.97192 -2.90712,-7.34403 -5.03788,-7.83534 -14.61567,-3.37007 -7.86175,3.66522 -15.28989,10.50222 -19.03313,17.51843 -2.42538,4.54606 -2.66756,5.99866 -2.66756,16 0,10.22724 0.20046,11.36166 2.85345,16.14807 3.77215,6.80554 8.805,11.57914 16.68356,15.82419 7.82822,4.21791 13.18532,4.66337 15.36631,1.27774 z m -15.15794,-14.68721 c -10.72948,-7.77239 -10.73564,-30.54655 -0.0102,-37.75795 7.15279,-4.80928 7.20339,-4.75665 8.92937,9.28796 0.87476,7.11815 0.87476,11.69625 0,18.8144 -1.75031,14.24258 -2.08573,14.6057 -8.91915,9.65559 z"
         style="fill:#000000" />
    </g>
  </g>
</svg>
