<?xml version="1.0" encoding="UTF-8" standalone="no"?>
<!-- Created with Inkscape (http://www.inkscape.org/) -->

<svg
   xmlns:dc="http://purl.org/dc/elements/1.1/"
   xmlns:cc="http://creativecommons.org/ns#"
   xmlns:rdf="http://www.w3.org/1999/02/22-rdf-syntax-ns#"
   xmlns:svg="http://www.w3.org/2000/svg"
   xmlns="http://www.w3.org/2000/svg"
   xmlns:sodipodi="http://sodipodi.sourceforge.net/DTD/sodipodi-0.dtd"
   xmlns:inkscape="http://www.inkscape.org/namespaces/inkscape"
   width="208.00873"
   height="109.80817"
   id="svg4329"
   version="1.1"
   inkscape:version="0.48.4 r9939"
   sodipodi:docname="A16.svg">
  <defs
     id="defs4331" />
  <sodipodi:namedview
     id="base"
     pagecolor="#ffffff"
     bordercolor="#666666"
     borderopacity="1.0"
     inkscape:pageopacity="0.0"
     inkscape:pageshadow="2"
     inkscape:zoom="2.8"
     inkscape:cx="70.170006"
     inkscape:cy="30.094419"
     inkscape:document-units="px"
     inkscape:current-layer="layer1"
     showgrid="false"
     fit-margin-top="4"
     fit-margin-left="4"
     fit-margin-right="4"
     fit-margin-bottom="4"
     inkscape:window-width="1920"
     inkscape:window-height="1153"
     inkscape:window-x="1276"
     inkscape:window-y="-4"
     inkscape:window-maximized="1" />
  <metadata
     id="metadata4334">
    <rdf:RDF>
      <cc:Work
         rdf:about="">
        <dc:format>image/svg+xml</dc:format>
        <dc:type
           rdf:resource="http://purl.org/dc/dcmitype/StillImage" />
        <dc:title></dc:title>
      </cc:Work>
    </rdf:RDF>
  </metadata>
  <g
     inkscape:label="Layer 1"
     inkscape:groupmode="layer"
     id="layer1"
     transform="translate(-107.59378,-425.09817)">
    <g
       id="g5271"
       transform="matrix(0.97833679,0,0,0.97833679,2.4175094,11.501229)">
      <rect
         y="428.24945"
         x="113.00535"
         height="101.25106"
         width="201.60822"
         id="rect5269"
         style="fill:#00a000;fill-opacity:1;fill-rule:evenodd;stroke:#000000;stroke-width:2.82036376;stroke-miterlimit:4;stroke-opacity:1;stroke-dasharray:none" />
      <path
         inkscape:connector-curvature="0"
         id="path3364"
         d="m 114.16429,504.44642 0,-24.25 24.2542,23.75 c 13.3399,13.0625 24.7689,23.75 25.3979,23.75 0.629,0 1.4168,-0.7118 1.7506,-1.5818 0.3339,-0.87 0.607,-6.945 0.607,-13.5 l 0,-11.9182 16.4286,0 c 13.6017,0 16.699,-0.2704 18,-1.5714 1.3175,-1.3175 1.5714,-4.6191 1.5714,-20.4286 0,-15.8095 -0.2539,-19.1111 -1.5714,-20.4286 -1.301,-1.301 -4.3983,-1.5714 -18,-1.5714 l -16.4286,0 0,-12.4182 c 0,-6.83 -0.2731,-13.13 -0.607,-14 -0.5484,-1.4292 4.142,-1.5818 48.6167,-1.5818 l 49.2236,0 -0.603,2.25 c -0.3316,1.2375 -0.6091,7.5375 -0.6166,14 l -0.014,11.75 -16.4286,0 c -13.6017,0 -16.699,0.2704 -18,1.5714 -1.3175,1.3175 -1.5714,4.6191 -1.5714,20.4286 0,15.8095 0.2539,19.1111 1.5714,20.4286 1.301,1.301 4.3983,1.5714 18,1.5714 l 16.4286,0 0.014,11.75 c 0.01,6.4625 0.285,12.7625 0.6166,14 l 0.6029,2.25 -74.6166,0 -74.6166,0 -0.01,-24.25 z m 150.1058,24 c 0.2388,-0.1375 11.5638,-11.2628 25.1666,-24.7229 l 24.7325,-24.4729 0,24.7229 0,24.7229 -25.1667,0 c -13.8417,0 -24.9713,-0.1125 -24.7324,-0.25 z m -123.6068,-38.7559 -10.9717,-11.0059 11.7388,-11.7388 11.7388,-11.7388 0,5.1733 c 0,8.1569 0.3747,8.3161 19.5714,8.3161 l 16.4286,0 0,10 0,10 -16.4286,0 c -18.8816,0 -19.5714,0.2669 -19.5714,7.5714 0,2.4357 -0.3452,4.4286 -0.7671,4.4286 -0.4219,0 -5.7043,-4.9526 -11.7388,-11.0059 z m 134.5059,6.7295 c 0,-7.4786 -0.6208,-7.7236 -19.5715,-7.7236 l -16.4285,0 0,-10 0,-10 16.4285,0 c 18.8817,0 19.5715,-0.2669 19.5715,-7.5714 0,-2.4357 0.1549,-4.4286 0.3443,-4.4286 0.1894,0 5.403,4.8416 11.5857,10.7591 l 11.2414,10.7591 -5.4974,5.5858 c -3.0236,3.0722 -8.2371,8.1992 -11.5857,11.3932 l -6.0883,5.8072 0,-4.5808 z m -161,-43.2471 0,-24.4765 24.4764,0 24.4763,0 -16.4694,16.1363 c -9.0581,8.8749 -20.0725,19.8894 -24.4764,24.4765 l -8.0069,8.3403 0,-24.4766 z m 193.4802,18.2049 c -3.3109,-3.3998 -14.3859,-14.3939 -24.6111,-24.4314 l -18.5912,-18.25 24.861,0 24.8611,0 0,24.5 c 0,13.475 -0.1125,24.4691 -0.25,24.4314 -0.1375,-0.038 -2.9589,-2.8502 -6.2698,-6.25 z"
         style="fill:#000000" />
    </g>
  </g>
</svg>
