<?xml version="1.0" encoding="UTF-8" standalone="no"?>
<!-- Created with Inkscape (http://www.inkscape.org/) -->

<svg
   xmlns:dc="http://purl.org/dc/elements/1.1/"
   xmlns:cc="http://creativecommons.org/ns#"
   xmlns:rdf="http://www.w3.org/1999/02/22-rdf-syntax-ns#"
   xmlns:svg="http://www.w3.org/2000/svg"
   xmlns="http://www.w3.org/2000/svg"
   version="1.1"
   width="100"
   height="80"
   id="svg4207">
  <metadata
     id="metadata7">
    <rdf:RDF>
      <cc:Work
         rdf:about="">
        <dc:format>image/svg+xml</dc:format>
        <dc:type
           rdf:resource="http://purl.org/dc/dcmitype/StillImage" />
        <dc:title></dc:title>
      </cc:Work>
    </rdf:RDF>
  </metadata>
  <defs
     id="defs4210" />
  <path
     d="M 9.1691026,20.404288 C 8.141975,20.350768 7.134389,20.9004 6.660681,21.884256 6.0371668,23.196065 6.569902,24.772533 7.8898076,25.396047 l 17.7345404,8.553717 c 1.311809,0.631612 2.888277,0.08268 3.511791,-1.229126 0.631612,-1.311808 0.09078,-2.880179 -1.229127,-3.51179 L 10.172471,20.65513 C 9.844519,20.495202 9.5114785,20.422128 9.1691026,20.404288 z m 80.3447464,0 c -0.340102,0.02935 -0.658434,0.130961 -0.978284,0.30101 l -16.129153,8.553718 c -1.287515,0.680196 -1.792,2.24936 -1.103706,3.536875 0.680197,1.287515 2.274444,1.783902 3.561959,1.103705 l 16.129153,-8.528634 c 1.287515,-0.680197 1.758817,-2.274443 1.078621,-3.561958 -0.510153,-0.959563 -1.5383,-1.492778 -2.55859,-1.404716 z M 35.33194,28.180395 c -4.558938,0 -4.916506,9.906863 -4.916506,12.943455 0,8.599631 1.661279,12.96854 4.916506,12.96854 7.676507,0 12.241098,-4.854764 12.241098,-12.96854 0,-8.105678 -4.564591,-12.943455 -12.241098,-12.943455 z m 29.724797,0 c -7.668409,0 -12.241098,4.837777 -12.241098,12.943455 0,4.15406 1.144131,7.415185 3.411453,9.682508 2.145859,2.145859 5.201928,3.286032 8.829645,3.286032 3.255227,0 4.916506,-4.368909 4.916506,-12.96854 0,-3.036592 -0.357568,-12.943455 -4.916506,-12.943455 z m -28.470586,5.468359 c 3.78157,0.461562 5.719201,2.835183 5.719201,7.475096 0,4.656109 -1.94652,7.063703 -5.744285,7.525265 -0.380587,-1.085075 -0.877948,-3.379303 -0.877948,-7.525265 0,-3.417179 0.490055,-6.09041 0.903032,-7.475096 z m 27.216375,0 c 0.421074,1.384686 0.903032,4.057917 0.903032,7.475096 0,4.178353 -0.497361,6.489566 -0.877948,7.550349 -1.328003,-0.145756 -2.79488,-0.487132 -3.888054,-1.580305 -1.247027,-1.23893 -1.856232,-3.265451 -1.856232,-5.970044 0,-4.639913 1.94573,-7.013534 5.719202,-7.475096 z M 5.5318913,38.013408 c -1.4575648,-0.0162 -2.6597185,1.134207 -2.6840113,2.583674 -0.02429,1.457564 1.1511939,2.667816 2.6087586,2.684011 L 26.70297,43.607188 c 1.457565,0.02429 2.659718,-1.151194 2.684011,-2.608759 0.02429,-1.449466 -1.12611,-2.642731 -2.583674,-2.658927 L 5.5318913,38.013408 z m 87.7195057,0 -19.666027,0.326094 c -1.457565,0.0162 -2.607967,1.226448 -2.583674,2.684012 0.0162,1.457564 1.20946,2.607967 2.658927,2.583674 l 19.691111,-0.326095 c 1.449467,-0.02429 2.599865,-1.226447 2.583675,-2.684011 -0.03243,-1.449467 -1.234545,-2.59987 -2.684012,-2.583674 z m -66.62368,10.05877 c -0.341616,0.0167 -0.675416,0.118024 -1.003369,0.275927 L 7.8898076,56.876738 c -1.3118082,0.639709 -1.8526408,2.20808 -1.2291266,3.511791 0.6397085,1.311807 2.1999821,1.860737 3.51179,1.229126 l 17.734541,-8.528633 c 1.311808,-0.631612 1.860739,-2.20808 1.229127,-3.511791 -0.473708,-0.983856 -1.483571,-1.555156 -2.508422,-1.505053 z m 46.731895,0.02509 c -0.840757,0.08944 -1.636844,0.574935 -2.056906,1.379631 -0.688294,1.279418 -0.183809,2.873665 1.103706,3.561959 l 16.129153,8.553718 c 1.279415,0.680196 2.856679,0.183809 3.536874,-1.103706 0.680196,-1.279417 0.208894,-2.889859 -1.078621,-3.561958 L 74.864665,48.398273 C 74.381847,48.143199 73.864066,48.0436 73.359612,48.097263 z"
     id="path932"
     style="fill:#008000;fill-opacity:1;fill-rule:nonzero;stroke:none" />
</svg>
