<?xml version="1.0" encoding="UTF-8" standalone="no"?>
<svg
   xmlns:dc="http://purl.org/dc/elements/1.1/"
   xmlns:cc="http://creativecommons.org/ns#"
   xmlns:rdf="http://www.w3.org/1999/02/22-rdf-syntax-ns#"
   xmlns:svg="http://www.w3.org/2000/svg"
   xmlns="http://www.w3.org/2000/svg"
   xmlns:sodipodi="http://sodipodi.sourceforge.net/DTD/sodipodi-0.dtd"
   xmlns:inkscape="http://www.inkscape.org/namespaces/inkscape"
   width="600.39996"
   height="600.39996"
   viewBox="-50 -30 60.039966 60.039998"
   id="svg2"
   version="1.1"
   inkscape:version="0.48.4 r9939"
   sodipodi:docname="Ajax.svg">
  <metadata
     id="metadata14">
    <rdf:RDF>
      <cc:Work
         rdf:about="">
        <dc:format>image/svg+xml</dc:format>
        <dc:type
           rdf:resource="http://purl.org/dc/dcmitype/StillImage" />
        <dc:title />
      </cc:Work>
    </rdf:RDF>
  </metadata>
  <defs
     id="defs12" />
  <sodipodi:namedview
     pagecolor="#ffffff"
     bordercolor="#666666"
     borderopacity="1"
     objecttolerance="10"
     gridtolerance="10"
     guidetolerance="10"
     inkscape:pageopacity="0"
     inkscape:pageshadow="2"
     inkscape:window-width="1280"
     inkscape:window-height="1001"
     id="namedview10"
     showgrid="false"
     fit-margin-top="0.2"
     fit-margin-left="0.2"
     fit-margin-right="0.2"
     fit-margin-bottom="0.2"
     inkscape:zoom="0.45537678"
     inkscape:cx="240.1414"
     inkscape:cy="98.928252"
     inkscape:window-x="-8"
     inkscape:window-y="-8"
     inkscape:window-maximized="1"
     inkscape:current-layer="svg2"
     showguides="true"
     inkscape:guide-bbox="true" />
  <path
     inkscape:connector-curvature="0"
     id="path3021"
     d="m -19.980016,25.020007 c -13.807122,0 -25,-11.192877 -25,-25 0,-13.807127 11.192878,-25.000001 25,-25.000001 13.8071096,0 24.9999958,11.192874 24.9999958,25.000001 0,13.807123 -11.1928862,25 -24.9999958,25 z"
     style="fill:#ffffff;fill-opacity:1;stroke:none"
     sodipodi:nodetypes="sssss" />
  <path
     d="m -44.654528,-12.69625 49.349019,0 -24.674507,40.451625 z"
     id="path3229"
     style="fill:none;stroke:#ec1d24;stroke-width:3.46481322999999990;stroke-linecap:butt;stroke-linejoin:round;stroke-miterlimit:4;stroke-opacity:1;stroke-dasharray:none"
     inkscape:connector-curvature="0" />
  <path
     style="fill:#ec1d24;fill-opacity:1;stroke:none"
     d="m -19.980016,30.02 c 16.5685316,0 29.999998,-13.431452 29.999998,-30 0,-16.56855 -13.4314664,-30 -29.999998,-30 -16.568548,0 -30,13.43145 -30,30 0,16.568548 13.431452,30 30,30 z m 0,-6 c -13.254838,0 -24,-10.745162 -24,-24 0,-13.254841 10.745162,-24 24,-24 13.2548246,0 23.9999955,10.745159 23.9999955,24 0,13.254838 -10.7451709,24 -23.9999955,24 z"
     id="path3069"
     inkscape:connector-curvature="0" />
  <path
     style="opacity:0.98999999;fill:#ffffff;fill-opacity:1;stroke:none"
     d="m -42.989465,-5.485232 5.547908,-2.800775 6.831156,13.531481 -5.547908,2.800774 z"
     id="rect3872"
     inkscape:connector-curvature="0" />
  <path
     id="path3877"
     d="m 3.0294317,-5.485232 -5.5479083,-2.800775 -6.8311568,13.531481 5.547909,2.800774 z"
     style="opacity:0.98999999;fill:#ffffff;fill-opacity:1;stroke:none"
     inkscape:connector-curvature="0" />
  <path
     style="fill:#000000;fill-opacity:1;fill-rule:nonzero;stroke:none"
     id="path3890"
     d="m -38.508944,-2.9276 c 0.0033,0.630484 0.418485,1.122613 1.565223,1.350669 l 2.521778,0.540266 c 1.36322,0.26338 2.4261,1.311014 2.43479,2.722117 -0.0088,2.096997 -1.68608,3.668447 -4.260905,3.677971 -2.041679,-0.0095 -3.038066,-0.533341 -4.586991,-2.098731 l 1.500013,-1.205211 c 1.111781,1.167289 1.975196,1.564178 3.086978,1.558464 1.445665,0.0057 2.359085,-0.454552 2.369585,-1.496125 -0.0105,-0.672736 -0.52536,-1.260103 -1.45653,-1.454565 l -2.347848,-0.477928 c -1.702911,-0.343556 -2.749115,-1.645045 -2.739151,-3.033808 -0.01,-2.008168 1.600918,-3.278143 4.152204,-3.283164 0,0 2.945305,0.005 4.065235,1.807818 l -1.58695,1.142873 c -0.86142,-1.310668 -2.739163,-1.309109 -2.739163,-1.309109 -1.310687,-0.0016 -1.975008,0.665117 -1.978268,1.558463"
     inkscape:connector-curvature="0" />
  <path
     style="fill:#000000;fill-opacity:1;fill-rule:nonzero;stroke:none"
     id="path3892"
     d="m -25.161033,-4.19515 0,9.309219 -1.93478,0 0,-9.309219 -3.17394,0 0,-1.68314 8.28266,0 0,1.68314 -3.17394,0"
     inkscape:connector-curvature="0" />
  <path
     style="fill:#000000;fill-opacity:1;fill-rule:nonzero;stroke:none"
     id="path3894"
     d="m -15.00956,-6.294384 c -3.56144,0.0068 -5.45341,2.546201 -5.4554,5.838713 0.002,3.644207 2.07675,5.898627 5.4554,5.90192 3.72883,-0.0033 5.4899956,-2.527674 5.5008656,-5.90192 -0.01087,-3.371821 -1.9048256,-5.83196 -5.5008656,-5.838713 z m 0,1.746082 c 2.18444,0.0075 3.46386,1.371555 3.45716,4.092631 0.0068,2.517093 -0.90732,4.168907 -3.45716,4.177565 -2.44875,-0.0086 -3.444729,-1.533372 -3.434429,-4.177565 -0.01036,-2.419426 0.88604,-4.085185 3.434429,-4.092631 z"
     inkscape:connector-curvature="0" />
  <path
     style="fill:#000000;fill-opacity:1;fill-rule:nonzero;stroke:none"
     id="path3896"
     d="m -6.6818144,-5.940822 0,11.055237 1.99824,0 0.02274,-4.031399 2.2834198,0 c 2.58860003,0.001 3.75115,-1.984187 3.76091,-3.533647 -0.0097,-1.656992 -1.00773997,-3.497463 -4.02336,-3.490191 l -4.0419498,0 z m 1.99824,1.682876 2.1532298,0 c 1.17973,-0.0078 2.04353003,0.70695 2.04373003,1.829042 0,1.211273 -0.76535003,1.813896 -2.06646003,1.807317 l -2.1304998,0 0,-3.636359 z"
     inkscape:connector-curvature="0" />
</svg>
